<svg xmlns="http://www.w3.org/2000/svg" xmlns:xlink="http://www.w3.org/1999/xlink" xmlns:lucid="lucid" width="956" height="483"><g transform="translate(-49 0)" lucid:page-tab-id="_qRHLqxmH8-P"><path d="M0 0h1870.87v1322.83H0z" fill="#557a95"/><path d="M255 82.6h162.87" stroke="#fff" stroke-width="3" fill="none"/><path d="M255.03 84.1h-1.54v-3h1.53" fill="#fff"/><path d="M433.64 82.6l-14.27 4.62v-9.27z" stroke="#fff" stroke-width="3" fill="#fff"/><path d="M438.5 64c0-.56.44-1 1-1H564c.56 0 1 .44 1 1v37.2c0 .54-.44 1-1 1H439.5c-.56 0-1-.46-1-1z" stroke="#d6242d" stroke-width="2" fill="#fff"/><use xlink:href="#a" transform="matrix(1,0,0,1,443.4946237199195,67.99212598425237) translate(41 20.386111111111113)"/><path d="M438.5 63h39.2v39.2h-39.2V63z" stroke="#fff" stroke-opacity="0" fill="#d6242d"/><path d="M467.24 70.83H447.1c-1.13.05-2 1.02-1.94 2.14v12.97c-.05 1.12.8 2.08 1.94 2.14h11.12v-1.06H447.1c-.55-.06-.93-.55-.9-1.08V77.1h9.42v7.84c0 .3.22.5.5.5h4.2v-1.02h-3.42v-.15c0-1.83 1.13-3.37 2.88-3.9.85.4 1.7.4 2.58 0 .98.3 1.75.9 2.3 1.8l.9-.53c-.58-.9-1.3-1.55-2.3-2 .47-.53.7-1.12.7-1.8 0-1.6-1.3-2.9-2.9-2.9-1.57 0-2.86 1.3-2.86 2.9.02.67.24 1.25.67 1.77-.94.42-1.64 1.03-2.2 1.9v-7h8.9v7.3h1.02v-4.7h1.56v5.23h1.05v-9.36-.02c.06-1.14-.83-2.08-1.96-2.12zM461.06 76c1 0 1.83.8 1.85 1.8 0 .67-.35 1.24-.95 1.57-.58.3-1.2.3-1.76 0-.6-.33-.95-.9-.97-1.57.02-1 .84-1.8 1.83-1.8zm5.53.06v-2.1c0-.28-.25-.5-.54-.5h-9.93c-.3 0-.5.22-.5.5v2.1h-9.42v-3.1c-.03-.53.35-1 .9-1.08h20.14c.53.07.94.54.9 1.1v3.08z" stroke="#fff" stroke-opacity="0" fill="#fff"/><path d="M447.26 79.7H453v1.03h-5.74V79.7zM447.26 82.3h3.65v1.05h-3.64V82.3zM451.96 82.3h1.56v1.05h-1.56V82.3zM465.74 94.37c-2.9 0-5.3-2.33-5.3-5.26-.02-2.9 2.33-5.28 5.26-5.3.24 0 .44.02.68.05 2.9.36 4.96 3 4.6 5.9-.13 1.07-.52 1.95-1.22 2.77-.52.6-1.06 1-1.77 1.36-.75.33-1.44.5-2.26.5zm0-9.52c-.7 0-1.3.15-1.93.47-2 1.05-2.84 3.48-1.87 5.56.98 2.12 3.5 3.04 5.63 2.05.57-.28 1-.6 1.4-1.08.58-.67.9-1.4 1-2.25.28-2.33-1.37-4.43-3.7-4.72-.18-.02-.34-.03-.53-.03z" stroke="#fff" stroke-opacity="0" fill="#fff"/><path d="M464.9 91.32c-.13 0-.25-.05-.36-.16l-1.7-1.68.74-.74 1.3 1.32 3-3 .74.76-3.36 3.34c-.1.1-.2.15-.35.16z" stroke="#fff" stroke-opacity="0" fill="#fff"/><path d="M567.5 82.6h91.19" stroke="#fff" stroke-width="3" fill="none"/><path d="M567.54 84.1H566v-3h1.54" fill="#fff"/><path d="M674.46 82.6L660.2 87.2v-9.27z" stroke="#fff" stroke-width="3" fill="#fff"/><path d="M812.6 104.7v28.58c0 3.32-2.7 6-6 6H220.17c-3.3 0-6 2.7-6 6v9.48" stroke="#fff" stroke-width="3" fill="none"/><path d="M814.1 104.72h-3v-1.53h3" fill="#fff"/><path d="M214.17 170.52l-4.63-14.26h9.27z" stroke="#fff" stroke-width="3" fill="#fff"/><path d="M214.17 218.07v28.34c0 .03.02.04.03.04.02 0 .03 0 .03.03v9.22" stroke="#fff" stroke-width="3" fill="none"/><path d="M215.67 218.1h-3v-1.53h3" fill="#fff"/><path d="M214.23 271.45l-4.64-14.26h9.26z" stroke="#fff" stroke-width="3" fill="#fff"/><path d="M323.76 296.9h60.8c3.3 0 6-2.68 6-6v-88.93c0-3.3 2.68-6 6-6h20.3" stroke="#fff" stroke-width="3" fill="none"/><path d="M323.8 298.4h-1.54v-3h1.54" fill="#fff"/><path d="M432.64 195.97l-14.27 4.64v-9.26z" stroke="#fff" stroke-width="3" fill="#fff"/><path d="M680.3 64c0-.56.46-1 1-1H943.9c.55 0 1 .44 1 1v37.2c0 .54-.45 1-1 1H681.3c-.54 0-1-.46-1-1z" fill="#fff"/><path d="M700.76 63h19.45m9.74 0h19.45m9.7 0h19.46m9.73 0h19.44m9.72 0h19.45m9.73 0h19.45m9.73 0h19.46m9.72 0h19.45m9.73 0h9.72l.7.3.3.7v12.4m0 12.4v12.4l-.3.7-.7.3h-9.72m-9.73 0h-19.45m-9.72 0H875.8m-9.72 0h-19.45m-9.72 0h-19.44m-9.72 0H788.3m-9.74 0H759.1m-9.7 0h-19.46m-9.73 0h-19.44m-9.72 0h-9.73l-.7-.3-.3-.7V88.8m0-12.4V64l.3-.7.7-.3h9.74" stroke="#d6242d" stroke-width="2" fill="none"/><use xlink:href="#b" transform="matrix(1,0,0,1,685.3149606299221,67.9921259842539) translate(41 20.386111111111113)"/><use xlink:href="#c" transform="matrix(1,0,0,1,685.3149606299221,67.9921259842539) translate(85.09876543209876 20.386111111111113)"/><use xlink:href="#d" transform="matrix(1,0,0,1,685.3149606299221,67.9921259842539) translate(170.29382716049383 20.386111111111113)"/><path d="M680.3 63h39.2v39.2h-39.2V63z" stroke="#fff" stroke-opacity="0" fill="#d6242d"/><path d="M709.06 70.83h-20.14c-1.13.05-2 1.02-1.94 2.14v12.97c-.05 1.12.8 2.08 1.94 2.14h11.12v-1.06h-11.12c-.55-.06-.93-.55-.9-1.08V77.1h9.42v7.84c0 .3.22.5.5.5h4.2v-1.02h-3.42v-.15c0-1.83 1.13-3.37 2.88-3.9.85.4 1.7.4 2.58 0 .98.3 1.75.9 2.3 1.8l.9-.53c-.58-.9-1.3-1.55-2.3-2 .47-.53.7-1.12.7-1.8 0-1.6-1.3-2.9-2.9-2.9-1.57 0-2.86 1.3-2.86 2.9.02.67.24 1.25.67 1.77-.95.42-1.65 1.03-2.2 1.9v-7h8.88v7.3h1.03v-4.7H710v5.23h1.05v-9.36-.02c.05-1.14-.84-2.08-1.97-2.12zM702.88 76c1 0 1.83.8 1.85 1.8-.02.67-.36 1.24-.96 1.57-.58.3-1.2.3-1.76 0-.6-.33-.93-.9-.95-1.57.02-1 .84-1.8 1.83-1.8zm5.53.06v-2.1c0-.28-.23-.5-.52-.5h-9.93c-.3 0-.5.22-.5.5v2.1h-9.42v-3.1c-.04-.53.34-1 .9-1.08h20.13c.53.07.94.54.9 1.1v3.08z" stroke="#fff" stroke-opacity="0" fill="#fff"/><path d="M689.08 79.7h5.74v1.03h-5.74V79.7zM689.08 82.3h3.65v1.05h-3.65V82.3zM693.78 82.3h1.56v1.05h-1.56V82.3zM707.56 94.37c-2.9 0-5.3-2.33-5.3-5.26-.02-2.9 2.33-5.28 5.26-5.3.24 0 .44.02.68.05 2.9.36 4.96 3 4.6 5.9-.13 1.07-.52 1.95-1.22 2.77-.52.6-1.06 1-1.77 1.36-.73.33-1.42.5-2.24.5zm0-9.52c-.7 0-1.3.15-1.93.47-2.02 1.05-2.85 3.48-1.88 5.56.98 2.12 3.5 3.04 5.63 2.05.57-.28 1-.6 1.4-1.08.58-.67.9-1.4 1-2.25.28-2.33-1.37-4.43-3.7-4.72-.18-.02-.34-.03-.53-.03z" stroke="#fff" stroke-opacity="0" fill="#fff"/><path d="M706.73 91.32c-.14 0-.26-.05-.37-.16l-1.7-1.68.74-.74 1.3 1.32 3-3 .74.76-3.36 3.34c-.1.1-.2.15-.35.16z" stroke="#fff" stroke-opacity="0" fill="#fff"/><path d="M667.72 383.7c0-.54.44-1 1-1h272.06c.55 0 1 .46 1 1v37.2c0 .56-.45 1-1 1H668.72c-.56 0-1-.44-1-1z" stroke="#d6242d" stroke-width="2" fill="#fff"/><use xlink:href="#e" transform="matrix(1,0,0,1,672.7165354330709,387.71363969926864) translate(41 20.386111111111113)"/><path d="M667.72 382.7h39.2v39.2h-39.2v-39.2z" stroke="#fff" stroke-opacity="0" fill="#d6242d"/><path d="M696.46 390.55h-20.13c-1.13.05-2 1.02-1.95 2.14v12.96c-.05 1.12.82 2.1 1.95 2.14h11.1v-1.05h-11.1c-.56-.07-.94-.56-.9-1.1v-8.82h9.4v7.83c0 .3.23.52.52.52h4.18v-1.04h-3.4V404c0-1.84 1.12-3.38 2.88-3.9.85.4 1.7.4 2.58 0 1 .3 1.76.9 2.3 1.78l.9-.5c-.58-.93-1.3-1.57-2.3-2.02.47-.53.7-1.12.7-1.8 0-1.6-1.3-2.9-2.9-2.9-1.56 0-2.86 1.3-2.86 2.9.02.67.24 1.25.67 1.77-.95.4-1.65 1.02-2.2 1.9v-7.02h8.88v7.32h1.03v-4.7h1.58v5.24h1.06v-9.37-.03c.04-1.13-.85-2.08-1.98-2.12zm-6.18 5.16c1 0 1.83.82 1.85 1.82-.02.67-.36 1.24-.96 1.57-.58.3-1.2.3-1.76 0-.6-.34-.92-.9-.95-1.58.03-1 .84-1.8 1.83-1.8zm5.53.08v-2.1c0-.28-.23-.5-.52-.5h-9.93c-.3 0-.5.22-.5.5v2.1h-9.4v-3.1c-.06-.52.32-1 .88-1.08h20.13c.53.07.94.54.9 1.1v3.08z" stroke="#fff" stroke-opacity="0" fill="#fff"/><path d="M676.48 399.4h5.74v1.06h-5.74v-1.05zM676.48 402.02h3.65v1.05h-3.65v-1.05zM681.18 402.02h1.56v1.05h-1.56v-1.05zM694.96 414.1c-2.9 0-5.3-2.34-5.3-5.27-.02-2.9 2.34-5.3 5.26-5.3.24 0 .44 0 .7.04 2.88.36 4.94 3 4.58 5.9-.13 1.07-.52 1.95-1.22 2.78-.52.6-1.06 1-1.77 1.35-.73.34-1.4.5-2.24.5zm0-9.53c-.7 0-1.3.15-1.93.47-2.02 1.06-2.85 3.5-1.88 5.56.98 2.12 3.5 3.04 5.63 2.05.57-.28 1-.6 1.4-1.08.58-.67.9-1.38 1-2.25.28-2.33-1.37-4.43-3.7-4.7-.18-.04-.34-.05-.53-.05z" stroke="#fff" stroke-opacity="0" fill="#fff"/><path d="M694.13 411.04c-.14 0-.26-.05-.37-.15l-1.7-1.7.74-.74 1.3 1.32 3-3 .74.76-3.36 3.35c-.1.08-.2.13-.35.14z" stroke="#fff" stroke-opacity="0" fill="#fff"/><path d="M465.45 218.07V361.1" stroke="#fff" stroke-width="3" fill="none"/><path d="M466.95 218.1h-3v-1.53h3" fill="#fff"/><path d="M465.45 376.86l-4.64-14.27h9.3z" stroke="#fff" stroke-width="3" fill="#fff"/><path d="M504.43 380.2v-143" stroke="#fff" stroke-width="3" fill="none"/><path d="M505.93 381.7h-3v-1.52h3" fill="#fff"/><path d="M504.43 221.43l4.64 14.26h-9.27z" stroke="#fff" stroke-width="3" fill="#fff"/><path d="M648.87 202.56h102.7c3.33 0 6 2.68 6 6V361.1" stroke="#fff" stroke-width="3" fill="none"/><path d="M648.9 204.06h-1.53v-3h1.54" fill="#fff"/><path d="M757.58 376.86l-4.63-14.27h9.27z" stroke="#fff" stroke-width="3" fill="#fff"/><path d="M804.75 380.2V192.6c0-3.32-2.7-6-6-6H668" stroke="#fff" stroke-width="3" fill="none"/><path d="M806.25 381.7h-3v-1.52h3" fill="#fff"/><path d="M652.22 186.58l14.27-4.64v9.27z" stroke="#fff" stroke-width="3" fill="#fff"/><path d="M361.5 383.7c0-.54.46-1 1-1h205.9c.54 0 1 .46 1 1v37.2c0 .56-.46 1-1 1H362.5c-.54 0-1-.44-1-1z" stroke="#d6242d" stroke-width="2" fill="#fff"/><use xlink:href="#f" transform="matrix(1,0,0,1,366.51277741706065,387.71363969927063) translate(41 20.386111111111113)"/><path d="M361.5 382.7h39.2v39.2h-39.2v-39.2z" stroke="#fff" stroke-opacity="0" fill="#d6242d"/><path d="M390.26 390.55h-20.14c-1.13.05-2 1.02-1.95 2.14v12.96c-.04 1.12.82 2.1 1.95 2.14h11.12v-1.05h-11.12c-.55-.07-.94-.56-.9-1.1v-8.82h9.42v7.83c0 .3.22.52.5.52h4.2v-1.04h-3.43V404c0-1.84 1.15-3.38 2.9-3.9.84.4 1.7.4 2.58 0 .98.3 1.75.9 2.3 1.78l.9-.5c-.58-.93-1.3-1.57-2.3-2.02.47-.53.68-1.12.68-1.8 0-1.6-1.3-2.9-2.88-2.9-1.57 0-2.87 1.3-2.87 2.9.04.67.25 1.25.7 1.77-.95.4-1.65 1.02-2.2 1.9v-7.02h8.88v7.32h1.03v-4.7h1.57v5.24h1.06v-9.37-.03c.05-1.13-.84-2.08-1.97-2.12zm-6.18 5.16c1 0 1.83.82 1.85 1.82-.02.67-.36 1.24-.96 1.57-.58.3-1.2.3-1.76 0-.6-.34-.93-.9-.95-1.58.02-1 .84-1.8 1.83-1.8zm5.53.08v-2.1c0-.28-.23-.5-.52-.5h-9.94c-.28 0-.5.22-.5.5v2.1h-9.4v-3.1c-.06-.52.33-1 .88-1.08h20.14c.53.07.94.54.9 1.1v3.08z" stroke="#fff" stroke-opacity="0" fill="#fff"/><path d="M370.28 399.4H376v1.06h-5.72v-1.05zM370.28 402.02h3.64v1.05h-3.64v-1.05zM374.98 402.02h1.56v1.05h-1.56v-1.05zM388.76 414.1c-2.92 0-5.3-2.34-5.3-5.27-.02-2.9 2.33-5.3 5.25-5.3.26 0 .46 0 .7.04 2.9.36 4.96 3 4.6 5.9-.13 1.07-.52 1.95-1.22 2.78-.52.6-1.06 1-1.77 1.35-.73.34-1.42.5-2.24.5zm0-9.53c-.7 0-1.3.15-1.93.47-2.02 1.06-2.85 3.5-1.9 5.56 1 2.12 3.52 3.04 5.65 2.05.57-.28 1-.6 1.4-1.08.58-.67.9-1.38 1-2.25.28-2.33-1.38-4.43-3.7-4.7-.2-.04-.34-.05-.53-.05z" stroke="#fff" stroke-opacity="0" fill="#fff"/><path d="M387.93 411.04c-.15 0-.27-.05-.37-.15l-1.7-1.7.74-.74 1.3 1.32 3-3 .73.76-3.35 3.35c-.1.08-.2.13-.35.14z" stroke="#fff" stroke-opacity="0" fill="#fff"/><path d="M233.07 321.12h220.96v50.53H233.07z" fill="#fff" fill-opacity="0"/><use xlink:href="#g" transform="matrix(1,0,0,1,238.07086614173227,326.1202099737532) translate(100.42469135802469 13.511111111111113)"/><use xlink:href="#h" transform="matrix(1,0,0,1,238.07086614173227,326.1202099737532) translate(182.85185185185185 13.511111111111113)"/><use xlink:href="#i" transform="matrix(1,0,0,1,238.07086614173227,326.1202099737532) translate(48.91358024691357 33.777777777777786)"/><use xlink:href="#j" transform="matrix(1,0,0,1,238.07086614173227,326.1202099737532) translate(138.8469135802469 33.777777777777786)"/><path d="M516.54 226.77h138.58v50.53H516.54z" fill="#fff" fill-opacity="0"/><use xlink:href="#k" transform="matrix(1,0,0,1,521.5354330708661,231.77165354330708) translate(0 13.511111111111113)"/><use xlink:href="#l" transform="matrix(1,0,0,1,521.5354330708661,231.77165354330708) translate(39.40740740740741 13.511111111111113)"/><use xlink:href="#m" transform="matrix(1,0,0,1,521.5354330708661,231.77165354330708) translate(0 33.777777777777786)"/><use xlink:href="#n" transform="matrix(1,0,0,1,521.5354330708661,231.77165354330708) translate(19.65679012345679 33.777777777777786)"/><path d="M107.2 278.3c0-.55.44-1 1-1h212.06c.55 0 1 .45 1 1v37.2c0 .55-.45 1-1 1H108.2c-.56 0-1-.45-1-1z" stroke="#d6242d" stroke-width="2" fill="#fff"/><use xlink:href="#o" transform="matrix(1,0,0,1,112.19572858612284,282.30498687664084) translate(41 20.386111111111113)"/><path d="M107.2 277.3h39.2v39.2h-39.2v-39.2z" stroke="#fff" stroke-opacity="0" fill="#d6242d"/><path d="M135.94 285.14H115.8c-1.13.06-2 1.02-1.94 2.14v12.97c-.05 1.12.8 2.1 1.95 2.14h11.12v-1.06h-11.1c-.57-.07-.95-.55-.9-1.1v-8.82h9.4v7.83c0 .3.22.52.5.52h4.2v-1.04h-3.42v-.15c0-1.83 1.13-3.36 2.88-3.88.85.38 1.7.38 2.58 0 1 .3 1.76.88 2.3 1.77l.9-.5c-.58-.93-1.3-1.57-2.3-2 .47-.55.7-1.13.7-1.82 0-1.6-1.3-2.88-2.9-2.88-1.56 0-2.86 1.3-2.86 2.88.02.67.24 1.25.67 1.77-.94.42-1.64 1.02-2.2 1.9v-7.02h8.9V296.1h1.02v-4.68h1.56v5.23h1.06v-9.37-.02c.04-1.13-.85-2.08-1.98-2.12zm-6.18 5.16c1 0 1.83.8 1.85 1.8 0 .68-.35 1.25-.95 1.58-.58.3-1.2.3-1.76 0-.6-.33-.94-.9-.97-1.57.03-1 .84-1.8 1.83-1.8zm5.53.07v-2.1c0-.28-.25-.5-.54-.5h-9.93c-.3 0-.5.22-.5.5v2.1h-9.42v-3.1c-.03-.52.35-1 .9-1.07h20.14c.53.06.94.53.9 1.08v3.1z" stroke="#fff" stroke-opacity="0" fill="#fff"/><path d="M115.96 294h5.74v1.05h-5.74V294zM115.96 296.6h3.65v1.06h-3.64v-1.05zM120.66 296.6h1.56v1.06h-1.56v-1.05zM134.44 308.7c-2.9 0-5.3-2.35-5.3-5.28-.02-2.9 2.33-5.3 5.26-5.3.24 0 .44 0 .68.04 2.9.36 4.96 3 4.6 5.9-.13 1.08-.52 1.95-1.22 2.78-.52.6-1.06 1-1.77 1.35-.75.33-1.44.5-2.26.5zm0-9.53c-.7 0-1.3.14-1.93.46-2 1.06-2.84 3.5-1.87 5.56.98 2.1 3.5 3.03 5.63 2.04.57-.28 1-.6 1.4-1.08.58-.66.9-1.38 1-2.25.28-2.3-1.37-4.42-3.7-4.7-.18-.02-.34-.03-.53-.03z" stroke="#fff" stroke-opacity="0" fill="#fff"/><path d="M133.6 305.63c-.13 0-.25-.05-.36-.15l-1.7-1.7.74-.73 1.3 1.32 3-2.98.74.73-3.36 3.35c-.1.1-.2.14-.35.15z" stroke="#fff" stroke-opacity="0" fill="#fff"/><path d="M611.02 321.12h138.6v50.53H611z" fill="#fff" fill-opacity="0"/><use xlink:href="#k" transform="matrix(1,0,0,1,616.0236220472441,326.1202099737532) translate(17.439506172839486 13.511111111111113)"/><use xlink:href="#l" transform="matrix(1,0,0,1,616.0236220472441,326.1202099737532) translate(56.8469135802469 13.511111111111113)"/><use xlink:href="#p" transform="matrix(1,0,0,1,616.0236220472441,326.1202099737532) translate(59.61481481481482 33.777777777777786)"/><path d="M680.3 151.18h138.6v44.24H680.3z" fill="#fff" fill-opacity="0"/><use xlink:href="#q" transform="matrix(1,0,0,1,685.3149606299212,156.1811023622047) translate(0 20.073611111111113)"/><path d="M107.1 177.38c0-.55.43-1 1-1h212.16c.55 0 1 .45 1 1v37.2c0 .54-.45 1-1 1H108.1c-.57 0-1-.46-1-1z" stroke="#283f53" stroke-width="2" fill="#fff"/><use xlink:href="#r" transform="matrix(1,0,0,1,112.08661417322833,181.37795275590548) translate(41 20.386111111111113)"/><use xlink:href="#s" transform="matrix(1,0,0,1,112.08661417322833,181.37795275590548) translate(149.55802469135804 20.386111111111113)"/><path d="M107.2 177.38c0-.55.44-1 1-1h37.2c.54 0 1 .45 1 1v37.2c0 .54-.46 1-1 1h-37.2c-.56 0-1-.46-1-1z" stroke="#000" stroke-opacity="0" fill="#283f53"/><path d="M140.04 209.8h-26.5c-.3 0-.57-.26-.57-.6v-1.76c0-6.28 4.12-11.55 10.2-13.03.17-.02.3 0 .44.07 2.06 1.1 4.33 1.1 6.37 0 .14-.07.28-.1.42-.06 6.1 1.5 10.22 6.76 10.22 13.04v1.77c0 .34-.28.6-.58.6zm-25.88-1.2h25.27v-1.16c.03-5.65-3.65-10.4-9.1-11.8-1.16.56-2.24.82-3.54.82-1.3 0-2.38-.25-3.55-.83-5.44 1.42-9.12 6.16-9.1 11.8z" stroke="#fff" stroke-opacity="0" fill="#fff"/><path d="M126.8 196.42c-1.27 0-2.36-.27-3.47-.88-3.44-1.93-4.67-6.3-2.74-9.73 1.9-3.43 6.27-4.66 9.7-2.74 2.32 1.3 3.65 3.57 3.65 6.24 0 2.7-1.36 4.97-3.72 6.24-1.1.6-2.18.88-3.43.88zm0-13.07c-2.3-.06-4.24 1.1-5.34 3.1-1.56 2.9-.5 6.5 2.4 8.06 1.87 1.02 3.92 1.02 5.8 0 1.96-1.06 3.1-3 3.1-5.24-.03-3.28-2.7-5.92-5.96-5.9z" stroke="#fff" stroke-opacity="0" fill="#fff"/><path d="M107.1 64c0-.56.43-1 1-1h143.4c.55 0 1 .44 1 1v37.2c0 .54-.45 1-1 1H108.1c-.57 0-1-.46-1-1z" stroke="#283f53" stroke-width="2" fill="#fff"/><g><use xlink:href="#t" transform="matrix(1,0,0,1,112.08661417322833,67.99212598425237) translate(41 20.386111111111113)"/><use xlink:href="#s" transform="matrix(1,0,0,1,112.08661417322833,67.99212598425237) translate(80.3604938271605 20.386111111111113)"/></g><path d="M107.1 64c0-.56.43-1 1-1h37.18c.55 0 1 .44 1 1v37.2c0 .54-.45 1-1 1h-37.2c-.55 0-1-.46-1-1z" stroke="#283f53" fill="#283f53"/><path d="M139.93 96.4h-26.5c-.3 0-.57-.25-.57-.57v-1.77c0-6.3 4.12-11.56 10.2-13.03.17-.04.3-.02.44.06 2.05 1.1 4.32 1.1 6.36 0 .14-.1.28-.1.42-.07 6.1 1.47 10.23 6.74 10.23 13.03v1.77c0 .32-.27.58-.57.58zm-25.88-1.17h25.27v-1.17c.03-5.66-3.65-10.4-9.1-11.82-1.16.57-2.24.83-3.54.83-1.3 0-2.37-.24-3.54-.83-5.44 1.42-9.12 6.16-9.1 11.82z" stroke="#fff" stroke-opacity="0" fill="#fff"/><path d="M126.7 83.04c-1.28 0-2.37-.27-3.48-.9-3.44-1.9-4.67-6.28-2.74-9.72 1.92-3.44 6.28-4.67 9.7-2.74 2.33 1.3 3.66 3.57 3.66 6.24 0 2.68-1.36 4.96-3.7 6.23-1.13.6-2.2.9-3.45.9zm0-13.08c-2.3-.05-4.25 1.1-5.35 3.1-1.56 2.9-.5 6.5 2.4 8.07 1.87 1 3.92 1 5.8 0 1.96-1.07 3.1-3 3.1-5.26-.03-3.28-2.7-5.92-5.96-5.9z" stroke="#fff" stroke-opacity="0" fill="#fff"/><path d="M438.5 177.38c0-.55.44-1 1-1h205.87c.55 0 1 .45 1 1v37.2c0 .54-.45 1-1 1H439.5c-.56 0-1-.46-1-1z" stroke="#283f53" stroke-width="2" fill="#fff"/><g><use xlink:href="#u" transform="matrix(1,0,0,1,443.4946237199195,181.3779527559055) translate(41 20.386111111111113)"/><use xlink:href="#s" transform="matrix(1,0,0,1,443.4946237199195,181.3779527559055) translate(129.90123456790124 20.386111111111113)"/></g><path d="M438.5 177.38c0-.55.44-1 1-1h37.2c.54 0 1 .45 1 1v37.2c0 .54-.46 1-1 1h-37.2c-.56 0-1-.46-1-1z" stroke="#000" stroke-opacity="0" fill="#283f53"/><path d="M471.33 209.8h-26.48c-.3 0-.58-.26-.58-.6v-1.76c0-6.28 4.12-11.55 10.2-13.03.17-.02.3 0 .44.07 2.06 1.1 4.33 1.1 6.37 0 .14-.07.28-.1.42-.06 6.1 1.5 10.22 6.76 10.22 13.04v1.77c0 .34-.28.6-.6.6zm-25.87-1.2h25.27v-1.16c.02-5.65-3.65-10.4-9.1-11.8-1.16.56-2.24.82-3.54.82-1.3 0-2.4-.25-3.55-.83-5.44 1.42-9.12 6.16-9.1 11.8z" stroke="#fff" stroke-opacity="0" fill="#fff"/><path d="M458.1 196.42c-1.28 0-2.36-.27-3.47-.88-3.44-1.93-4.67-6.3-2.74-9.73 1.9-3.43 6.27-4.66 9.7-2.74 2.32 1.3 3.64 3.57 3.64 6.24 0 2.7-1.35 4.97-3.7 6.24-1.12.6-2.2.88-3.45.88zm0-13.07c-2.3-.06-4.24 1.1-5.34 3.1-1.56 2.9-.5 6.5 2.4 8.06 1.86 1.02 3.92 1.02 5.8 0 1.96-1.06 3.1-3 3.1-5.24-.03-3.28-2.7-5.92-5.97-5.9z" stroke="#fff" stroke-opacity="0" fill="#fff"/><defs><path fill="#d6242d" d="M169-182c-1-43-94-46-97-3 18 66 151 10 154 114 3 95-165 93-204 36-6-8-10-19-12-30l50-8c3 46 112 56 116 5-17-69-150-10-154-114-4-87 153-88 188-35 5 8 8 18 10 28" id="v"/><path fill="#d6242d" d="M25-224v-37h50v37H25zM25 0v-190h50V0H25" id="w"/><path fill="#d6242d" d="M195-6C206 82 75 100 31 46c-4-6-6-13-8-21l49-6c3 16 16 24 34 25 40 0 42-37 40-79-11 22-30 35-61 35-53 0-70-43-70-97 0-56 18-96 73-97 30 0 46 14 59 34l2-30h47zm-90-29c32 0 41-27 41-63 0-35-9-62-40-62-32 0-39 29-40 63 0 36 9 62 39 62" id="x"/><path fill="#d6242d" d="M135-194c87-1 58 113 63 194h-50c-7-57 23-157-34-157-59 0-34 97-39 157H25l-1-190h47c2 12-1 28 3 38 12-26 28-41 61-42" id="y"/><path fill="#d6242d" d="M238-95c0 69-44 99-111 99C63 4 22-25 22-93v-155h51v151c-1 38 19 59 55 60 90 1 49-130 58-211h52v153" id="z"/><path fill="#d6242d" d="M135-194c53 0 70 44 70 98 0 56-19 98-73 100-31 1-45-17-59-34 3 33 2 69 2 105H25l-1-265h48c2 10 0 23 3 31 11-24 29-35 60-35zM114-30c33 0 39-31 40-66 0-38-9-64-40-64-56 0-55 130 0 130" id="A"/><g id="a"><use transform="matrix(0.04691358024691358,0,0,0.04691358024691358,0,0)" xlink:href="#v"/><use transform="matrix(0.04691358024691358,0,0,0.04691358024691358,11.25925925925926,0)" xlink:href="#w"/><use transform="matrix(0.04691358024691358,0,0,0.04691358024691358,15.950617283950619,0)" xlink:href="#x"/><use transform="matrix(0.04691358024691358,0,0,0.04691358024691358,26.224691358024693,0)" xlink:href="#y"/><use transform="matrix(0.04691358024691358,0,0,0.04691358024691358,36.498765432098764,0)" xlink:href="#z"/><use transform="matrix(0.04691358024691358,0,0,0.04691358024691358,48.64938271604939,0)" xlink:href="#A"/></g><path fill="#d6242d" d="M185-189c-5-48-123-54-124 2 14 75 158 14 163 119 3 78-121 87-175 55-17-10-28-26-33-46l33-7c5 56 141 63 141-1 0-78-155-14-162-118-5-82 145-84 179-34 5 7 8 16 11 25" id="B"/><path fill="#d6242d" d="M100-194c63 0 86 42 84 106H49c0 40 14 67 53 68 26 1 43-12 49-29l28 8c-11 28-37 45-77 45C44 4 14-33 15-96c1-61 26-98 85-98zm52 81c6-60-76-77-97-28-3 7-6 17-6 28h103" id="C"/><path fill="#d6242d" d="M117-194c89-4 53 116 60 194h-32v-121c0-31-8-49-39-48C34-167 62-67 57 0H25l-1-190h30c1 10-1 24 2 32 11-22 29-35 61-36" id="D"/><path fill="#d6242d" d="M85-194c31 0 48 13 60 33l-1-100h32l1 261h-30c-2-10 0-23-3-31C134-8 116 4 85 4 32 4 16-35 15-94c0-66 23-100 70-100zm9 24c-40 0-46 34-46 75 0 40 6 74 45 74 42 0 51-32 51-76 0-42-9-74-50-73" id="E"/><g id="b"><use transform="matrix(0.04691358024691358,0,0,0.04691358024691358,0,0)" xlink:href="#B"/><use transform="matrix(0.04691358024691358,0,0,0.04691358024691358,11.25925925925926,0)" xlink:href="#C"/><use transform="matrix(0.04691358024691358,0,0,0.04691358024691358,20.641975308641975,0)" xlink:href="#D"/><use transform="matrix(0.04691358024691358,0,0,0.04691358024691358,30.024691358024686,0)" xlink:href="#E"/></g><path fill="#d6242d" d="M108 0H70L1-190h34L89-25l56-165h34" id="F"/><path fill="#d6242d" d="M114-163C36-179 61-72 57 0H25l-1-190h30c1 12-1 29 2 39 6-27 23-49 58-41v29" id="G"/><path fill="#d6242d" d="M24-231v-30h32v30H24zM24 0v-190h32V0H24" id="H"/><path fill="#d6242d" d="M101-234c-31-9-42 10-38 44h38v23H63V0H32v-167H5v-23h27c-7-52 17-82 69-68v24" id="I"/><path fill="#d6242d" d="M96-169c-40 0-48 33-48 73s9 75 48 75c24 0 41-14 43-38l32 2c-6 37-31 61-74 61-59 0-76-41-82-99-10-93 101-131 147-64 4 7 5 14 7 22l-32 3c-4-21-16-35-41-35" id="J"/><path fill="#d6242d" d="M141-36C126-15 110 5 73 4 37 3 15-17 15-53c-1-64 63-63 125-63 3-35-9-54-41-54-24 1-41 7-42 31l-33-3c5-37 33-52 76-52 45 0 72 20 72 64v82c-1 20 7 32 28 27v20c-31 9-61-2-59-35zM48-53c0 20 12 33 32 33 41-3 63-29 60-74-43 2-92-5-92 41" id="K"/><path fill="#d6242d" d="M59-47c-2 24 18 29 38 22v24C64 9 27 4 27-40v-127H5v-23h24l9-43h21v43h35v23H59v120" id="L"/><path fill="#d6242d" d="M100-194c62-1 85 37 85 99 1 63-27 99-86 99S16-35 15-95c0-66 28-99 85-99zM99-20c44 1 53-31 53-75 0-43-8-75-51-75s-53 32-53 75 10 74 51 75" id="M"/><g id="c"><use transform="matrix(0.04691358024691358,0,0,0.04691358024691358,0,0)" xlink:href="#F"/><use transform="matrix(0.04691358024691358,0,0,0.04691358024691358,8.444444444444445,0)" xlink:href="#C"/><use transform="matrix(0.04691358024691358,0,0,0.04691358024691358,17.82716049382716,0)" xlink:href="#G"/><use transform="matrix(0.04691358024691358,0,0,0.04691358024691358,23.409876543209876,0)" xlink:href="#H"/><use transform="matrix(0.04691358024691358,0,0,0.04691358024691358,27.11604938271605,0)" xlink:href="#I"/><use transform="matrix(0.04691358024691358,0,0,0.04691358024691358,31.80740740740741,0)" xlink:href="#H"/><use transform="matrix(0.04691358024691358,0,0,0.04691358024691358,35.51358024691358,0)" xlink:href="#J"/><use transform="matrix(0.04691358024691358,0,0,0.04691358024691358,43.95802469135802,0)" xlink:href="#K"/><use transform="matrix(0.04691358024691358,0,0,0.04691358024691358,53.340740740740735,0)" xlink:href="#L"/><use transform="matrix(0.04691358024691358,0,0,0.04691358024691358,58.03209876543209,0)" xlink:href="#H"/><use transform="matrix(0.04691358024691358,0,0,0.04691358024691358,61.73827160493826,0)" xlink:href="#M"/><use transform="matrix(0.04691358024691358,0,0,0.04691358024691358,71.12098765432098,0)" xlink:href="#D"/></g><path fill="#d6242d" d="M210-169c-67 3-38 105-44 169h-31v-121c0-29-5-50-35-48C34-165 62-65 56 0H25l-1-190h30c1 10-1 24 2 32 10-44 99-50 107 0 11-21 27-35 58-36 85-2 47 119 55 194h-31v-121c0-29-5-49-35-48" id="N"/><path fill="#d6242d" d="M135-143c-3-34-86-38-87 0 15 53 115 12 119 90S17 21 10-45l28-5c4 36 97 45 98 0-10-56-113-15-118-90-4-57 82-63 122-42 12 7 21 19 24 35" id="O"/><path fill="#d6242d" d="M177-190C167-65 218 103 67 71c-23-6-38-20-44-43l32-5c15 47 100 32 89-28v-30C133-14 115 1 83 1 29 1 15-40 15-95c0-56 16-97 71-98 29-1 48 16 59 35 1-10 0-23 2-32h30zM94-22c36 0 50-32 50-73 0-42-14-75-50-75-39 0-46 34-46 75s6 73 46 73" id="P"/><g id="d"><use transform="matrix(0.04691358024691358,0,0,0.04691358024691358,0,0)" xlink:href="#N"/><use transform="matrix(0.04691358024691358,0,0,0.04691358024691358,14.02716049382716,0)" xlink:href="#C"/><use transform="matrix(0.04691358024691358,0,0,0.04691358024691358,23.409876543209876,0)" xlink:href="#O"/><use transform="matrix(0.04691358024691358,0,0,0.04691358024691358,31.85432098765432,0)" xlink:href="#O"/><use transform="matrix(0.04691358024691358,0,0,0.04691358024691358,40.29876543209876,0)" xlink:href="#K"/><use transform="matrix(0.04691358024691358,0,0,0.04691358024691358,49.68148148148148,0)" xlink:href="#P"/><use transform="matrix(0.04691358024691358,0,0,0.04691358024691358,59.06419753086419,0)" xlink:href="#C"/></g><path fill="#d6242d" d="M240-174c0 40-23 61-54 70L253 0h-59l-57-94H76V0H24v-248c93 4 217-23 216 74zM76-134c48-2 112 12 112-38 0-48-66-32-112-35v73" id="Q"/><path fill="#d6242d" d="M185-48c-13 30-37 53-82 52C43 2 14-33 14-96s30-98 90-98c62 0 83 45 84 108H66c0 31 8 55 39 56 18 0 30-7 34-22zm-45-69c5-46-57-63-70-21-2 6-4 13-4 21h74" id="R"/><path fill="#d6242d" d="M137-138c1-29-70-34-71-4 15 46 118 7 119 86 1 83-164 76-172 9l43-7c4 19 20 25 44 25 33 8 57-30 24-41C81-84 22-81 20-136c-2-80 154-74 161-7" id="S"/><path fill="#d6242d" d="M110-194c64 0 96 36 96 99 0 64-35 99-97 99-61 0-95-36-95-99 0-62 34-99 96-99zm-1 164c35 0 45-28 45-65 0-40-10-65-43-65-34 0-45 26-45 65 0 36 10 65 43 65" id="T"/><path fill="#d6242d" d="M88-194c31-1 46 15 58 34l-1-101h50l1 261h-48c-2-10 0-23-3-31C134-8 116 4 84 4 32 4 16-41 15-95c0-56 19-97 73-99zm17 164c33 0 40-30 41-66 1-37-9-64-41-64s-38 30-39 65c0 43 13 65 39 65" id="U"/><path fill="#d6242d" d="M136-208V0H84v-208H4v-40h212v40h-80" id="V"/><path fill="#d6242d" d="M199 0l-22-63H83L61 0H9l90-248h61L250 0h-51zm-33-102l-36-108c-10 38-24 72-36 108h72" id="W"/><path fill="#d6242d" d="M85 4C-2 5 27-109 22-190h50c7 57-23 150 33 157 60-5 35-97 40-157h50l1 190h-47c-2-12 1-28-3-38-12 25-28 42-61 42" id="X"/><path fill="#d6242d" d="M115-3C79 11 28 4 28-45v-112H4v-33h27l15-45h31v45h36v33H77v99c-1 23 16 31 38 25v30" id="Y"/><path fill="#d6242d" d="M114-157C55-157 80-60 75 0H25v-261h50l-1 109c12-26 28-41 61-42 86-1 58 113 63 194h-50c-7-57 23-157-34-157" id="Z"/><path fill="#d6242d" d="M67-125c0 53 21 87 73 88 37 1 54-22 65-47l45 17C233-25 199 4 140 4 58 4 20-42 15-125 8-235 124-281 211-232c18 10 29 29 36 50l-46 12c-8-25-30-41-62-41-52 0-71 34-72 86" id="aa"/><path fill="#d6242d" d="M133-34C117-15 103 5 69 4 32 3 11-16 11-54c-1-60 55-63 116-61 1-26-3-47-28-47-18 1-26 9-28 27l-52-2c7-38 36-58 82-57s74 22 75 68l1 82c-1 14 12 18 25 15v27c-30 8-71 5-69-32zm-48 3c29 0 43-24 42-57-32 0-66-3-65 30 0 17 8 27 23 27" id="ab"/><path fill="#d6242d" d="M25 0v-261h50V0H25" id="ac"/><g id="e"><use transform="matrix(0.04691358024691358,0,0,0.04691358024691358,0,0)" xlink:href="#Q"/><use transform="matrix(0.04691358024691358,0,0,0.04691358024691358,12.150617283950618,0)" xlink:href="#R"/><use transform="matrix(0.04691358024691358,0,0,0.04691358024691358,21.533333333333335,0)" xlink:href="#S"/><use transform="matrix(0.04691358024691358,0,0,0.04691358024691358,30.91604938271605,0)" xlink:href="#A"/><use transform="matrix(0.04691358024691358,0,0,0.04691358024691358,41.19012345679013,0)" xlink:href="#T"/><use transform="matrix(0.04691358024691358,0,0,0.04691358024691358,51.46419753086421,0)" xlink:href="#y"/><use transform="matrix(0.04691358024691358,0,0,0.04691358024691358,61.738271604938284,0)" xlink:href="#U"/><use transform="matrix(0.04691358024691358,0,0,0.04691358024691358,72.01234567901237,0)" xlink:href="#V"/><use transform="matrix(0.04691358024691358,0,0,0.04691358024691358,81.01975308641978,0)" xlink:href="#T"/><use transform="matrix(0.04691358024691358,0,0,0.04691358024691358,91.29382716049386,0)" xlink:href="#W"/><use transform="matrix(0.04691358024691358,0,0,0.04691358024691358,103.4444444444445,0)" xlink:href="#X"/><use transform="matrix(0.04691358024691358,0,0,0.04691358024691358,113.71851851851856,0)" xlink:href="#Y"/><use transform="matrix(0.04691358024691358,0,0,0.04691358024691358,119.30123456790129,0)" xlink:href="#Z"/><use transform="matrix(0.04691358024691358,0,0,0.04691358024691358,129.57530864197534,0)" xlink:href="#aa"/><use transform="matrix(0.04691358024691358,0,0,0.04691358024691358,141.72592592592596,0)" xlink:href="#Z"/><use transform="matrix(0.04691358024691358,0,0,0.04691358024691358,152.00000000000003,0)" xlink:href="#ab"/><use transform="matrix(0.04691358024691358,0,0,0.04691358024691358,161.38271604938274,0)" xlink:href="#ac"/><use transform="matrix(0.04691358024691358,0,0,0.04691358024691358,166.0740740740741,0)" xlink:href="#ac"/><use transform="matrix(0.04691358024691358,0,0,0.04691358024691358,170.76543209876547,0)" xlink:href="#R"/><use transform="matrix(0.04691358024691358,0,0,0.04691358024691358,180.14814814814818,0)" xlink:href="#y"/><use transform="matrix(0.04691358024691358,0,0,0.04691358024691358,190.42222222222225,0)" xlink:href="#x"/><use transform="matrix(0.04691358024691358,0,0,0.04691358024691358,200.6962962962963,0)" xlink:href="#R"/></g><path fill="#d6242d" d="M24 0v-248h52V0H24" id="ad"/><g id="f"><use transform="matrix(0.04691358024691358,0,0,0.04691358024691358,0,0)" xlink:href="#ad"/><use transform="matrix(0.04691358024691358,0,0,0.04691358024691358,4.691358024691358,0)" xlink:href="#y"/><use transform="matrix(0.04691358024691358,0,0,0.04691358024691358,14.965432098765433,0)" xlink:href="#w"/><use transform="matrix(0.04691358024691358,0,0,0.04691358024691358,19.65679012345679,0)" xlink:href="#Y"/><use transform="matrix(0.04691358024691358,0,0,0.04691358024691358,25.2395061728395,0)" xlink:href="#w"/><use transform="matrix(0.04691358024691358,0,0,0.04691358024691358,29.930864197530862,0)" xlink:href="#ab"/><use transform="matrix(0.04691358024691358,0,0,0.04691358024691358,39.31358024691358,0)" xlink:href="#Y"/><use transform="matrix(0.04691358024691358,0,0,0.04691358024691358,44.8962962962963,0)" xlink:href="#R"/><use transform="matrix(0.04691358024691358,0,0,0.04691358024691358,54.279012345679014,0)" xlink:href="#W"/><use transform="matrix(0.04691358024691358,0,0,0.04691358024691358,66.42962962962963,0)" xlink:href="#X"/><use transform="matrix(0.04691358024691358,0,0,0.04691358024691358,76.70370370370371,0)" xlink:href="#Y"/><use transform="matrix(0.04691358024691358,0,0,0.04691358024691358,82.28641975308642,0)" xlink:href="#Z"/></g><path fill="#fff" d="M232-93c-1 65-40 97-104 97C67 4 28-28 28-90v-158h33c8 89-33 224 67 224 102 0 64-133 71-224h33v155" id="ae"/><path fill="#fff" d="M135-143c-3-34-86-38-87 0 15 53 115 12 119 90S17 21 10-45l28-5c4 36 97 45 98 0-10-56-113-15-118-90-4-57 82-63 122-42 12 7 21 19 24 35" id="af"/><path fill="#fff" d="M100-194c63 0 86 42 84 106H49c0 40 14 67 53 68 26 1 43-12 49-29l28 8c-11 28-37 45-77 45C44 4 14-33 15-96c1-61 26-98 85-98zm52 81c6-60-76-77-97-28-3 7-6 17-6 28h103" id="ag"/><path fill="#fff" d="M114-163C36-179 61-72 57 0H25l-1-190h30c1 12-1 29 2 39 6-27 23-49 58-41v29" id="ah"/><path fill="#fff" d="M117-194c89-4 53 116 60 194h-32v-121c0-31-8-49-39-48C34-167 62-67 57 0H25l-1-190h30c1 10-1 24 2 32 11-22 29-35 61-36" id="ai"/><path fill="#fff" d="M141-36C126-15 110 5 73 4 37 3 15-17 15-53c-1-64 63-63 125-63 3-35-9-54-41-54-24 1-41 7-42 31l-33-3c5-37 33-52 76-52 45 0 72 20 72 64v82c-1 20 7 32 28 27v20c-31 9-61-2-59-35zM48-53c0 20 12 33 32 33 41-3 63-29 60-74-43 2-92-5-92 41" id="aj"/><path fill="#fff" d="M210-169c-67 3-38 105-44 169h-31v-121c0-29-5-50-35-48C34-165 62-65 56 0H25l-1-190h30c1 10-1 24 2 32 10-44 99-50 107 0 11-21 27-35 58-36 85-2 47 119 55 194h-31v-121c0-29-5-49-35-48" id="ak"/><g id="g"><use transform="matrix(0.04691358024691358,0,0,0.04691358024691358,0,0)" xlink:href="#ae"/><use transform="matrix(0.04691358024691358,0,0,0.04691358024691358,12.150617283950618,0)" xlink:href="#af"/><use transform="matrix(0.04691358024691358,0,0,0.04691358024691358,20.595061728395063,0)" xlink:href="#ag"/><use transform="matrix(0.04691358024691358,0,0,0.04691358024691358,29.97777777777778,0)" xlink:href="#ah"/><use transform="matrix(0.04691358024691358,0,0,0.04691358024691358,35.5604938271605,0)" xlink:href="#ai"/><use transform="matrix(0.04691358024691358,0,0,0.04691358024691358,44.943209876543214,0)" xlink:href="#aj"/><use transform="matrix(0.04691358024691358,0,0,0.04691358024691358,54.32592592592593,0)" xlink:href="#ak"/><use transform="matrix(0.04691358024691358,0,0,0.04691358024691358,68.35308641975308,0)" xlink:href="#ag"/></g><path fill="#fff" d="M85-194c31 0 48 13 60 33l-1-100h32l1 261h-30c-2-10 0-23-3-31C134-8 116 4 85 4 32 4 16-35 15-94c0-66 23-100 70-100zm9 24c-40 0-46 34-46 75 0 40 6 74 45 74 42 0 51-32 51-76 0-42-9-74-50-73" id="al"/><g id="h"><use transform="matrix(0.04691358024691358,0,0,0.04691358024691358,0,0)" xlink:href="#aj"/><use transform="matrix(0.04691358024691358,0,0,0.04691358024691358,9.382716049382717,0)" xlink:href="#ai"/><use transform="matrix(0.04691358024691358,0,0,0.04691358024691358,18.765432098765434,0)" xlink:href="#al"/></g><path fill="#fff" d="M87 75C49 33 22-17 22-94c0-76 28-126 65-167h31c-38 41-64 92-64 168S80 34 118 75H87" id="am"/><path fill="#fff" d="M96-169c-40 0-48 33-48 73s9 75 48 75c24 0 41-14 43-38l32 2c-6 37-31 61-74 61-59 0-76-41-82-99-10-93 101-131 147-64 4 7 5 14 7 22l-32 3c-4-21-16-35-41-35" id="an"/><path fill="#fff" d="M179-190L93 31C79 59 56 82 12 73V49c39 6 53-20 64-50L1-190h34L92-34l54-156h33" id="ao"/><path fill="#fff" d="M115-194c55 1 70 41 70 98S169 2 115 4C84 4 66-9 55-30l1 105H24l-1-265h31l2 30c10-21 28-34 59-34zm-8 174c40 0 45-34 45-75s-6-73-45-74c-42 0-51 32-51 76 0 43 10 73 51 73" id="ap"/><path fill="#fff" d="M59-47c-2 24 18 29 38 22v24C64 9 27 4 27-40v-127H5v-23h24l9-43h21v43h35v23H59v120" id="aq"/><path fill="#fff" d="M33-261c38 41 65 92 65 168S71 34 33 75H2C39 34 66-17 66-93S39-220 2-261h31" id="ar"/><g id="i"><use transform="matrix(0.04691358024691358,0,0,0.04691358024691358,0,0)" xlink:href="#am"/><use transform="matrix(0.04691358024691358,0,0,0.04691358024691358,5.582716049382716,0)" xlink:href="#ag"/><use transform="matrix(0.04691358024691358,0,0,0.04691358024691358,14.965432098765433,0)" xlink:href="#ai"/><use transform="matrix(0.04691358024691358,0,0,0.04691358024691358,24.348148148148148,0)" xlink:href="#an"/><use transform="matrix(0.04691358024691358,0,0,0.04691358024691358,32.79259259259259,0)" xlink:href="#ah"/><use transform="matrix(0.04691358024691358,0,0,0.04691358024691358,38.37530864197531,0)" xlink:href="#ao"/><use transform="matrix(0.04691358024691358,0,0,0.04691358024691358,46.81975308641975,0)" xlink:href="#ap"/><use transform="matrix(0.04691358024691358,0,0,0.04691358024691358,56.20246913580246,0)" xlink:href="#aq"/><use transform="matrix(0.04691358024691358,0,0,0.04691358024691358,60.89382716049383,0)" xlink:href="#ag"/><use transform="matrix(0.04691358024691358,0,0,0.04691358024691358,70.27654320987655,0)" xlink:href="#al"/><use transform="matrix(0.04691358024691358,0,0,0.04691358024691358,79.65925925925927,0)" xlink:href="#ar"/></g><path fill="#fff" d="M206 0h-36l-40-164L89 0H53L-1-190h32L70-26l43-164h34l41 164 42-164h31" id="as"/><path fill="#fff" d="M100-194c62-1 85 37 85 99 1 63-27 99-86 99S16-35 15-95c0-66 28-99 85-99zM99-20c44 1 53-31 53-75 0-43-8-75-51-75s-53 32-53 75 10 74 51 75" id="at"/><g id="j"><use transform="matrix(0.04691358024691358,0,0,0.04691358024691358,0,0)" xlink:href="#ap"/><use transform="matrix(0.04691358024691358,0,0,0.04691358024691358,9.382716049382717,0)" xlink:href="#aj"/><use transform="matrix(0.04691358024691358,0,0,0.04691358024691358,18.765432098765434,0)" xlink:href="#af"/><use transform="matrix(0.04691358024691358,0,0,0.04691358024691358,27.209876543209877,0)" xlink:href="#af"/><use transform="matrix(0.04691358024691358,0,0,0.04691358024691358,35.65432098765432,0)" xlink:href="#as"/><use transform="matrix(0.04691358024691358,0,0,0.04691358024691358,47.80493827160494,0)" xlink:href="#at"/><use transform="matrix(0.04691358024691358,0,0,0.04691358024691358,57.187654320987654,0)" xlink:href="#ah"/><use transform="matrix(0.04691358024691358,0,0,0.04691358024691358,62.77037037037037,0)" xlink:href="#al"/></g><path fill="#fff" d="M205 0l-28-72H64L36 0H1l101-248h38L239 0h-34zm-38-99l-47-123c-12 45-31 82-46 123h93" id="au"/><path fill="#fff" d="M84 4C-5 8 30-112 23-190h32v120c0 31 7 50 39 49 72-2 45-101 50-169h31l1 190h-30c-1-10 1-25-2-33-11 22-28 36-60 37" id="av"/><path fill="#fff" d="M106-169C34-169 62-67 57 0H25v-261h32l-1 103c12-21 28-36 61-36 89 0 53 116 60 194h-32v-121c2-32-8-49-39-48" id="aw"/><g id="k"><use transform="matrix(0.04691358024691358,0,0,0.04691358024691358,0,0)" xlink:href="#au"/><use transform="matrix(0.04691358024691358,0,0,0.04691358024691358,11.25925925925926,0)" xlink:href="#av"/><use transform="matrix(0.04691358024691358,0,0,0.04691358024691358,20.641975308641975,0)" xlink:href="#aq"/><use transform="matrix(0.04691358024691358,0,0,0.04691358024691358,25.33333333333333,0)" xlink:href="#aw"/></g><path fill="#fff" d="M24 0v-261h32V0H24" id="ax"/><path fill="#fff" d="M177-190C167-65 218 103 67 71c-23-6-38-20-44-43l32-5c15 47 100 32 89-28v-30C133-14 115 1 83 1 29 1 15-40 15-95c0-56 16-97 71-98 29-1 48 16 59 35 1-10 0-23 2-32h30zM94-22c36 0 50-32 50-73 0-42-14-75-50-75-39 0-46 34-46 75s6 73 46 73" id="ay"/><g id="l"><use transform="matrix(0.04691358024691358,0,0,0.04691358024691358,0,0)" xlink:href="#an"/><use transform="matrix(0.04691358024691358,0,0,0.04691358024691358,8.444444444444445,0)" xlink:href="#aw"/><use transform="matrix(0.04691358024691358,0,0,0.04691358024691358,17.82716049382716,0)" xlink:href="#aj"/><use transform="matrix(0.04691358024691358,0,0,0.04691358024691358,27.209876543209877,0)" xlink:href="#ax"/><use transform="matrix(0.04691358024691358,0,0,0.04691358024691358,30.91604938271605,0)" xlink:href="#ax"/><use transform="matrix(0.04691358024691358,0,0,0.04691358024691358,34.62222222222223,0)" xlink:href="#ag"/><use transform="matrix(0.04691358024691358,0,0,0.04691358024691358,44.00493827160494,0)" xlink:href="#ai"/><use transform="matrix(0.04691358024691358,0,0,0.04691358024691358,53.38765432098766,0)" xlink:href="#ay"/><use transform="matrix(0.04691358024691358,0,0,0.04691358024691358,62.77037037037037,0)" xlink:href="#ag"/></g><g id="m"><use transform="matrix(0.04691358024691358,0,0,0.04691358024691358,0,0)" xlink:href="#at"/><use transform="matrix(0.04691358024691358,0,0,0.04691358024691358,9.382716049382717,0)" xlink:href="#ah"/></g><path fill="#fff" d="M153-248C145-148 188 4 80 4 36 3 13-21 6-62l32-5c4 25 16 42 43 43 27 0 39-20 39-49v-147H72v-28h81" id="az"/><path fill="#fff" d="M266 0h-40l-56-210L115 0H75L2-248h35L96-30l15-64 43-154h32l59 218 59-218h35" id="aA"/><path fill="#fff" d="M127-220V0H93v-220H8v-28h204v28h-85" id="aB"/><g id="n"><use transform="matrix(0.04691358024691358,0,0,0.04691358024691358,0,0)" xlink:href="#az"/><use transform="matrix(0.04691358024691358,0,0,0.04691358024691358,8.444444444444445,0)" xlink:href="#aA"/><use transform="matrix(0.04691358024691358,0,0,0.04691358024691358,24.348148148148148,0)" xlink:href="#aB"/></g><path fill="#d6242d" d="M121-226c-27-7-43 5-38 36h38v33H83V0H34v-157H6v-33h28c-9-59 32-81 87-68v32" id="aC"/><path fill="#d6242d" d="M135-150c-39-12-60 13-60 57V0H25l-1-190h47c2 13-1 29 3 40 6-28 27-53 61-41v41" id="aD"/><path fill="#d6242d" d="M220-157c-53 9-28 100-34 157h-49v-107c1-27-5-49-29-50C55-147 81-57 75 0H25l-1-190h47c2 12-1 28 3 38 10-53 101-56 108 0 13-22 24-43 59-42 82 1 51 116 57 194h-49v-107c-1-25-5-48-29-50" id="aE"/><g id="o"><use transform="matrix(0.04691358024691358,0,0,0.04691358024691358,0,0)" xlink:href="#aa"/><use transform="matrix(0.04691358024691358,0,0,0.04691358024691358,12.150617283950618,0)" xlink:href="#T"/><use transform="matrix(0.04691358024691358,0,0,0.04691358024691358,22.424691358024695,0)" xlink:href="#y"/><use transform="matrix(0.04691358024691358,0,0,0.04691358024691358,32.69876543209877,0)" xlink:href="#aC"/><use transform="matrix(0.04691358024691358,0,0,0.04691358024691358,38.281481481481485,0)" xlink:href="#w"/><use transform="matrix(0.04691358024691358,0,0,0.04691358024691358,42.972839506172846,0)" xlink:href="#aD"/><use transform="matrix(0.04691358024691358,0,0,0.04691358024691358,49.540740740740745,0)" xlink:href="#aE"/><use transform="matrix(0.04691358024691358,0,0,0.04691358024691358,64.55308641975309,0)" xlink:href="#v"/><use transform="matrix(0.04691358024691358,0,0,0.04691358024691358,75.81234567901234,0)" xlink:href="#w"/><use transform="matrix(0.04691358024691358,0,0,0.04691358024691358,80.50370370370369,0)" xlink:href="#x"/><use transform="matrix(0.04691358024691358,0,0,0.04691358024691358,90.77777777777777,0)" xlink:href="#y"/><use transform="matrix(0.04691358024691358,0,0,0.04691358024691358,101.05185185185186,0)" xlink:href="#z"/><use transform="matrix(0.04691358024691358,0,0,0.04691358024691358,113.20246913580247,0)" xlink:href="#A"/></g><g id="p"><use transform="matrix(0.04691358024691358,0,0,0.04691358024691358,0,0)" xlink:href="#ah"/><use transform="matrix(0.04691358024691358,0,0,0.04691358024691358,5.582716049382716,0)" xlink:href="#ag"/><use transform="matrix(0.04691358024691358,0,0,0.04691358024691358,14.965432098765433,0)" xlink:href="#af"/><use transform="matrix(0.04691358024691358,0,0,0.04691358024691358,23.409876543209876,0)" xlink:href="#ap"/><use transform="matrix(0.04691358024691358,0,0,0.04691358024691358,32.79259259259259,0)" xlink:href="#at"/><use transform="matrix(0.04691358024691358,0,0,0.04691358024691358,42.175308641975306,0)" xlink:href="#ai"/><use transform="matrix(0.04691358024691358,0,0,0.04691358024691358,51.558024691358014,0)" xlink:href="#af"/><use transform="matrix(0.04691358024691358,0,0,0.04691358024691358,60.002469135802464,0)" xlink:href="#ag"/></g><g id="q"><use transform="matrix(0.04691358024691358,0,0,0.04691358024691358,0,0)" xlink:href="#az"/><use transform="matrix(0.04691358024691358,0,0,0.04691358024691358,8.444444444444445,0)" xlink:href="#aA"/><use transform="matrix(0.04691358024691358,0,0,0.04691358024691358,24.348148148148148,0)" xlink:href="#aB"/></g><path fill="#283f53" d="M238-95c0 69-44 99-111 99C63 4 22-25 22-93v-155h51v151c-1 38 19 59 55 60 90 1 49-130 58-211h52v153" id="aF"/><path fill="#283f53" d="M135-194c87-1 58 113 63 194h-50c-7-57 23-157-34-157-59 0-34 97-39 157H25l-1-190h47c2 12-1 28 3 38 12-26 28-41 61-42" id="aG"/><path fill="#283f53" d="M190-63c-7 42-38 67-86 67-59 0-84-38-90-98-12-110 154-137 174-36l-49 2c-2-19-15-32-35-32-30 0-35 28-38 64-6 74 65 87 74 30" id="aH"/><path fill="#283f53" d="M110-194c64 0 96 36 96 99 0 64-35 99-97 99-61 0-95-36-95-99 0-62 34-99 96-99zm-1 164c35 0 45-28 45-65 0-40-10-65-43-65-34 0-45 26-45 65 0 36 10 65 43 65" id="aI"/><path fill="#283f53" d="M121-226c-27-7-43 5-38 36h38v33H83V0H34v-157H6v-33h28c-9-59 32-81 87-68v32" id="aJ"/><path fill="#283f53" d="M25-224v-37h50v37H25zM25 0v-190h50V0H25" id="aK"/><path fill="#283f53" d="M135-150c-39-12-60 13-60 57V0H25l-1-190h47c2 13-1 29 3 40 6-28 27-53 61-41v41" id="aL"/><path fill="#283f53" d="M220-157c-53 9-28 100-34 157h-49v-107c1-27-5-49-29-50C55-147 81-57 75 0H25l-1-190h47c2 12-1 28 3 38 10-53 101-56 108 0 13-22 24-43 59-42 82 1 51 116 57 194h-49v-107c-1-25-5-48-29-50" id="aM"/><path fill="#283f53" d="M185-48c-13 30-37 53-82 52C43 2 14-33 14-96s30-98 90-98c62 0 83 45 84 108H66c0 31 8 55 39 56 18 0 30-7 34-22zm-45-69c5-46-57-63-70-21-2 6-4 13-4 21h74" id="aN"/><path fill="#283f53" d="M88-194c31-1 46 15 58 34l-1-101h50l1 261h-48c-2-10 0-23-3-31C134-8 116 4 84 4 32 4 16-41 15-95c0-56 19-97 73-99zm17 164c33 0 40-30 41-66 1-37-9-64-41-64s-38 30-39 65c0 43 13 65 39 65" id="aO"/><g id="r"><use transform="matrix(0.04691358024691358,0,0,0.04691358024691358,0,0)" xlink:href="#aF"/><use transform="matrix(0.04691358024691358,0,0,0.04691358024691358,12.150617283950618,0)" xlink:href="#aG"/><use transform="matrix(0.04691358024691358,0,0,0.04691358024691358,22.424691358024695,0)" xlink:href="#aH"/><use transform="matrix(0.04691358024691358,0,0,0.04691358024691358,31.80740740740741,0)" xlink:href="#aI"/><use transform="matrix(0.04691358024691358,0,0,0.04691358024691358,42.08148148148149,0)" xlink:href="#aG"/><use transform="matrix(0.04691358024691358,0,0,0.04691358024691358,52.35555555555557,0)" xlink:href="#aJ"/><use transform="matrix(0.04691358024691358,0,0,0.04691358024691358,57.938271604938286,0)" xlink:href="#aK"/><use transform="matrix(0.04691358024691358,0,0,0.04691358024691358,62.62962962962965,0)" xlink:href="#aL"/><use transform="matrix(0.04691358024691358,0,0,0.04691358024691358,69.19753086419755,0)" xlink:href="#aM"/><use transform="matrix(0.04691358024691358,0,0,0.04691358024691358,84.20987654320989,0)" xlink:href="#aN"/><use transform="matrix(0.04691358024691358,0,0,0.04691358024691358,93.59259259259261,0)" xlink:href="#aO"/></g><path fill="#283f53" d="M85 4C-2 5 27-109 22-190h50c7 57-23 150 33 157 60-5 35-97 40-157h50l1 190h-47c-2-12 1-28-3-38-12 25-28 42-61 42" id="aP"/><path fill="#283f53" d="M137-138c1-29-70-34-71-4 15 46 118 7 119 86 1 83-164 76-172 9l43-7c4 19 20 25 44 25 33 8 57-30 24-41C81-84 22-81 20-136c-2-80 154-74 161-7" id="aQ"/><g id="s"><use transform="matrix(0.04691358024691358,0,0,0.04691358024691358,0,0)" xlink:href="#aP"/><use transform="matrix(0.04691358024691358,0,0,0.04691358024691358,10.274074074074075,0)" xlink:href="#aQ"/><use transform="matrix(0.04691358024691358,0,0,0.04691358024691358,19.656790123456794,0)" xlink:href="#aN"/><use transform="matrix(0.04691358024691358,0,0,0.04691358024691358,29.03950617283951,0)" xlink:href="#aL"/></g><path fill="#283f53" d="M175 0L67-191c6 58 2 128 3 191H24v-248h59L193-55c-6-58-2-129-3-193h46V0h-61" id="aR"/><path fill="#283f53" d="M231 0h-52l-39-155L100 0H48L-1-190h46L77-45c9-52 24-97 36-145h53l37 145 32-145h46" id="aS"/><g id="t"><use transform="matrix(0.04691358024691358,0,0,0.04691358024691358,0,0)" xlink:href="#aR"/><use transform="matrix(0.04691358024691358,0,0,0.04691358024691358,12.150617283950618,0)" xlink:href="#aN"/><use transform="matrix(0.04691358024691358,0,0,0.04691358024691358,21.533333333333335,0)" xlink:href="#aS"/></g><path fill="#283f53" d="M67-125c0 53 21 87 73 88 37 1 54-22 65-47l45 17C233-25 199 4 140 4 58 4 20-42 15-125 8-235 124-281 211-232c18 10 29 29 36 50l-46 12c-8-25-30-41-62-41-52 0-71 34-72 86" id="aT"/><g id="u"><use transform="matrix(0.04691358024691358,0,0,0.04691358024691358,0,0)" xlink:href="#aT"/><use transform="matrix(0.04691358024691358,0,0,0.04691358024691358,12.150617283950618,0)" xlink:href="#aI"/><use transform="matrix(0.04691358024691358,0,0,0.04691358024691358,22.424691358024695,0)" xlink:href="#aG"/><use transform="matrix(0.04691358024691358,0,0,0.04691358024691358,32.69876543209877,0)" xlink:href="#aJ"/><use transform="matrix(0.04691358024691358,0,0,0.04691358024691358,38.281481481481485,0)" xlink:href="#aK"/><use transform="matrix(0.04691358024691358,0,0,0.04691358024691358,42.972839506172846,0)" xlink:href="#aL"/><use transform="matrix(0.04691358024691358,0,0,0.04691358024691358,49.540740740740745,0)" xlink:href="#aM"/><use transform="matrix(0.04691358024691358,0,0,0.04691358024691358,64.55308641975309,0)" xlink:href="#aN"/><use transform="matrix(0.04691358024691358,0,0,0.04691358024691358,73.93580246913581,0)" xlink:href="#aO"/></g></defs></g></svg>